<svg id="visual" viewBox="0 0 900 600" width="900" height="600" xmlns="http://www.w3.org/2000/svg" xmlns:xlink="http://www.w3.org/1999/xlink" version="1.1"><path d="M0 73L16.7 76C33.3 79 66.7 85 100 83C133.3 81 166.7 71 200 65C233.3 59 266.7 57 300 61C333.3 65 366.7 75 400 76C433.3 77 466.7 69 500 60C533.3 51 566.7 41 600 48C633.3 55 666.7 79 700 84C733.3 89 766.7 75 800 69C833.3 63 866.7 65 883.3 66L900 67L900 0L883.3 0C866.7 0 833.3 0 800 0C766.7 0 733.3 0 700 0C666.7 0 633.3 0 600 0C566.7 0 533.3 0 500 0C466.7 0 433.3 0 400 0C366.7 0 333.3 0 300 0C266.7 0 233.3 0 200 0C166.7 0 133.3 0 100 0C66.7 0 33.3 0 16.7 0L0 0Z" fill="#1b1f25"></path><path d="M0 301L16.7 281C33.3 261 66.7 221 100 194C133.3 167 166.7 153 200 149C233.3 145 266.7 151 300 184C333.3 217 366.7 277 400 313C433.3 349 466.7 361 500 356C533.3 351 566.7 329 600 320C633.3 311 666.7 315 700 317C733.3 319 766.7 319 800 293C833.3 267 866.7 215 883.3 189L900 163L900 65L883.3 64C866.7 63 833.3 61 800 67C766.7 73 733.3 87 700 82C666.7 77 633.3 53 600 46C566.7 39 533.3 49 500 58C466.7 67 433.3 75 400 74C366.7 73 333.3 63 300 59C266.7 55 233.3 57 200 63C166.7 69 133.3 79 100 81C66.7 83 33.3 77 16.7 74L0 71Z" fill="#1e232b"></path><path d="M0 487L16.7 451C33.3 415 66.7 343 100 315C133.3 287 166.7 303 200 308C233.3 313 266.7 307 300 317C333.3 327 366.7 353 400 373C433.3 393 466.7 407 500 408C533.3 409 566.7 397 600 386C633.3 375 666.7 365 700 375C733.3 385 766.7 415 800 399C833.3 383 866.7 321 883.3 290L900 259L900 161L883.3 187C866.7 213 833.3 265 800 291C766.7 317 733.3 317 700 315C666.7 313 633.3 309 600 318C566.7 327 533.3 349 500 354C466.7 359 433.3 347 400 311C366.7 275 333.3 215 300 182C266.7 149 233.3 143 200 147C166.7 151 133.3 165 100 192C66.7 219 33.3 259 16.7 279L0 299Z" fill="#222831"></path><path d="M0 559L16.7 546C33.3 533 66.7 507 100 505C133.3 503 166.7 525 200 539C233.3 553 266.7 559 300 561C333.3 563 366.7 561 400 556C433.3 551 466.7 543 500 542C533.3 541 566.7 547 600 544C633.3 541 666.7 529 700 523C733.3 517 766.7 517 800 524C833.3 531 866.7 545 883.3 552L900 559L900 257L883.3 288C866.7 319 833.3 381 800 397C766.7 413 733.3 383 700 373C666.7 363 633.3 373 600 384C566.7 395 533.3 407 500 406C466.7 405 433.3 391 400 371C366.7 351 333.3 325 300 315C266.7 305 233.3 311 200 306C166.7 301 133.3 285 100 313C66.7 341 33.3 413 16.7 449L0 485Z" fill="#323944"></path><path d="M0 601L16.7 601C33.3 601 66.7 601 100 601C133.3 601 166.7 601 200 601C233.3 601 266.7 601 300 601C333.3 601 366.7 601 400 601C433.3 601 466.7 601 500 601C533.3 601 566.7 601 600 601C633.3 601 666.7 601 700 601C733.3 601 766.7 601 800 601C833.3 601 866.7 601 883.3 601L900 601L900 557L883.3 550C866.7 543 833.3 529 800 522C766.7 515 733.3 515 700 521C666.7 527 633.3 539 600 542C566.7 545 533.3 539 500 540C466.7 541 433.3 549 400 554C366.7 559 333.3 561 300 559C266.7 557 233.3 551 200 537C166.7 523 133.3 501 100 503C66.7 505 33.3 531 16.7 544L0 557Z" fill="#424b58"></path></svg>